<svg xmlns="http://www.w3.org/2000/svg" xmlns:xlink="http://www.w3.org/1999/xlink" xmlns:lucid="lucid" width="1380" height="1876.67"><g transform="translate(40 1336.6666666666667)" lucid:page-tab-id="0_0"><path d="M560-1114c0-3.3 2.7-6 6-6h168c3.3 0 6 2.7 6 6v108c0 3.3-2.7 6-6 6H566c-3.3 0-6-2.7-6-6z" stroke="#5e5e5e" stroke-width="3" fill="#fff"/><use xlink:href="#a" transform="matrix(1,0,0,1,572,-1108) translate(24.388888888888893 53.77777777777778)"/><use xlink:href="#b" transform="matrix(1,0,0,1,572,-1108) translate(85.9320987654321 53.77777777777778)"/><use xlink:href="#c" transform="matrix(1,0,0,1,572,-1108) translate(98.27777777777777 53.77777777777778)"/><path d="M468-880c17.67 0 32 17.9 32 40s-14.33 40-32 40h-96c-17.67 0-32-17.9-32-40s14.33-40 32-40z" stroke="#5e5e5e" stroke-width="3" fill="#fff"/><use xlink:href="#a" transform="matrix(1,0,0,1,345,-875) translate(32.5 39.65277777777778)"/><use xlink:href="#b" transform="matrix(1,0,0,1,345,-875) translate(94.04320987654322 39.65277777777778)"/><use xlink:href="#d" transform="matrix(1,0,0,1,345,-875) translate(106.38888888888889 39.65277777777778)"/><path d="M928-880c17.67 0 32 17.9 32 40s-14.33 40-32 40h-96c-17.67 0-32-17.9-32-40s14.33-40 32-40z" stroke="#5e5e5e" stroke-width="3" fill="#fff"/><use xlink:href="#e" transform="matrix(1,0,0,1,805,-875) translate(63.888888888888886 39.65277777777778)"/><path d="M557.5-1060H426c-3.3 0-6 2.7-6 6v154" stroke="#5e5e5e" stroke-width="2" fill="none"/><path d="M558.5-1059h-1.03v-2h1.03z" fill="#5e5e5e"/><path d="M420-884.74L415.36-899h9.28z" stroke="#5e5e5e" stroke-width="2" fill="#5e5e5e"/><path d="M742.5-1060H874c3.3 0 6 2.7 6 6v154" stroke="#5e5e5e" stroke-width="2" fill="none"/><path d="M742.53-1059h-1.03v-2h1.03z" fill="#5e5e5e"/><path d="M880-884.74L875.36-899h9.28z" stroke="#5e5e5e" stroke-width="2" fill="#5e5e5e"/><path d="M288-780c17.67 0 32 17.9 32 40s-14.33 40-32 40h-96c-17.67 0-32-17.9-32-40s14.33-40 32-40z" stroke="#5e5e5e" stroke-width="3" fill="#fff"/><use xlink:href="#a" transform="matrix(1,0,0,1,165,-775) translate(26.944444444444443 39.65277777777778)"/><use xlink:href="#b" transform="matrix(1,0,0,1,165,-775) translate(88.48765432098764 39.65277777777778)"/><use xlink:href="#f" transform="matrix(1,0,0,1,165,-775) translate(100.83333333333333 39.65277777777778)"/><path d="M1108-780c17.67 0 32 17.9 32 40s-14.33 40-32 40h-96c-17.67 0-32-17.9-32-40s14.33-40 32-40z" stroke="#5e5e5e" stroke-width="3" fill="#fff"/><use xlink:href="#g" transform="matrix(1,0,0,1,985,-775) translate(69.44444444444444 39.65277777777778)"/><path d="M337.5-840H246c-3.3 0-6 2.7-6 6v34" stroke="#5e5e5e" stroke-width="2" fill="none"/><path d="M338.5-840.02l.03 1.02h-1.06v-2h1.1z" fill="#5e5e5e"/><path d="M240-784.74L235.36-799h9.28z" stroke="#5e5e5e" stroke-width="2" fill="#5e5e5e"/><path d="M962.5-840h91.5c3.3 0 6 2.7 6 6v34" stroke="#5e5e5e" stroke-width="2" fill="none"/><path d="M962.53-839h-1.1l.07-.98-.03-1.02h1.06z" fill="#5e5e5e"/><path d="M1060-784.74l-4.64-14.26h9.28z" stroke="#5e5e5e" stroke-width="2" fill="#5e5e5e"/><path d="M288-640c17.67 0 32 17.9 32 40s-14.33 40-32 40h-96c-17.67 0-32-17.9-32-40s14.33-40 32-40z" stroke="#5e5e5e" stroke-width="3" fill="#fff"/><use xlink:href="#h" transform="matrix(1,0,0,1,165,-635) translate(47.31481481481482 39.65277777777778)"/><path d="M1108-640c17.67 0 32 17.9 32 40s-14.33 40-32 40h-96c-17.67 0-32-17.9-32-40s14.33-40 32-40z" stroke="#5e5e5e" stroke-width="3" fill="#fff"/><use xlink:href="#i" transform="matrix(1,0,0,1,985,-635) translate(58.333333333333336 39.65277777777778)"/><path d="M240-697.5v37.5" stroke="#5e5e5e" stroke-width="2" fill="none"/><path d="M241-697.47h-2v-1.03h2z" fill="#5e5e5e"/><path d="M240-644.74L235.36-659h9.28z" stroke="#5e5e5e" stroke-width="2" fill="#5e5e5e"/><path d="M1060-697.5v37.5" stroke="#5e5e5e" stroke-width="2" fill="none"/><path d="M1061-697.47h-2v-1.03h2z" fill="#5e5e5e"/><path d="M1060-644.74l-4.64-14.26h9.28z" stroke="#5e5e5e" stroke-width="2" fill="#5e5e5e"/><path d="M108-480c17.67 0 32 17.9 32 40s-14.33 40-32 40H12c-17.67 0-32-17.9-32-40s14.33-40 32-40z" stroke="#5e5e5e" stroke-width="3" fill="#fff"/><use xlink:href="#a" transform="matrix(1,0,0,1,-15,-475) translate(32.5 39.65277777777778)"/><use xlink:href="#b" transform="matrix(1,0,0,1,-15,-475) translate(94.04320987654322 39.65277777777778)"/><use xlink:href="#d" transform="matrix(1,0,0,1,-15,-475) translate(106.38888888888889 39.65277777777778)"/><path d="M1288-480c17.67 0 32 17.9 32 40s-14.33 40-32 40h-96c-17.67 0-32-17.9-32-40s14.33-40 32-40z" stroke="#5e5e5e" stroke-width="3" fill="#fff"/><use xlink:href="#e" transform="matrix(1,0,0,1,1165,-475) translate(63.888888888888886 39.65277777777778)"/><path d="M288-400c17.67 0 32 17.9 32 40s-14.33 40-32 40h-96c-17.67 0-32-17.9-32-40s14.33-40 32-40z" stroke="#5e5e5e" stroke-width="3" fill="#fff"/><use xlink:href="#j" transform="matrix(1,0,0,1,165,-395) translate(50.95679012345679 39.65277777777778)"/><use xlink:href="#b" transform="matrix(1,0,0,1,165,-395) translate(75.58641975308642 39.65277777777778)"/><use xlink:href="#d" transform="matrix(1,0,0,1,165,-395) translate(87.9320987654321 39.65277777777778)"/><path d="M1108-400c17.67 0 32 17.9 32 40s-14.33 40-32 40h-96c-17.67 0-32-17.9-32-40s14.33-40 32-40z" stroke="#5e5e5e" stroke-width="3" fill="#fff"/><use xlink:href="#k" transform="matrix(1,0,0,1,985,-395) translate(36.17283950617284 39.65277777777778)"/><use xlink:href="#b" transform="matrix(1,0,0,1,985,-395) translate(79.25925925925927 39.65277777777778)"/><use xlink:href="#f" transform="matrix(1,0,0,1,985,-395) translate(91.60493827160494 39.65277777777778)"/><path d="M157.5-600H66c-3.3 0-6 2.7-6 6v94" stroke="#5e5e5e" stroke-width="2" fill="none"/><path d="M158.5-600.02l.03 1.02h-1.06v-2h1.1z" fill="#5e5e5e"/><path d="M60-484.74L55.36-499h9.28z" stroke="#5e5e5e" stroke-width="2" fill="#5e5e5e"/><path d="M1142.5-600h91.5c3.3 0 6 2.7 6 6v94" stroke="#5e5e5e" stroke-width="2" fill="none"/><path d="M1142.53-599h-1.1l.07-.98-.03-1.02h1.06z" fill="#5e5e5e"/><path d="M1240-484.74l-4.64-14.26h9.28z" stroke="#5e5e5e" stroke-width="2" fill="#5e5e5e"/><path d="M142.5-440H234c3.3 0 6 2.7 6 6v14" stroke="#5e5e5e" stroke-width="2" fill="none"/><path d="M142.53-439h-1.1l.07-.98-.03-1.02h1.06z" fill="#5e5e5e"/><path d="M240-404.74L235.37-419h9.27z" stroke="#5e5e5e" stroke-width="2" fill="#5e5e5e"/><path d="M1157.5-440H1066c-3.3 0-6 2.7-6 6v14" stroke="#5e5e5e" stroke-width="2" fill="none"/><path d="M1158.5-440.02l.03 1.02h-1.06v-2h1.1z" fill="#5e5e5e"/><path d="M1060-404.74l-4.64-14.26h9.27z" stroke="#5e5e5e" stroke-width="2" fill="#5e5e5e"/><path d="M448-300c17.67 0 32 17.9 32 40s-14.33 40-32 40h-96c-17.67 0-32-17.9-32-40s14.33-40 32-40z" stroke="#5e5e5e" stroke-width="3" fill="#fff"/><use xlink:href="#k" transform="matrix(1,0,0,1,325,-295) translate(36.17283950617284 39.65277777777778)"/><use xlink:href="#b" transform="matrix(1,0,0,1,325,-295) translate(79.25925925925927 39.65277777777778)"/><use xlink:href="#f" transform="matrix(1,0,0,1,325,-295) translate(91.60493827160494 39.65277777777778)"/><path d="M948-300c17.67 0 32 17.9 32 40s-14.33 40-32 40h-96c-17.67 0-32-17.9-32-40s14.33-40 32-40z" stroke="#5e5e5e" stroke-width="3" fill="#fff"/><use xlink:href="#j" transform="matrix(1,0,0,1,825,-295) translate(50.95679012345679 39.65277777777778)"/><use xlink:href="#b" transform="matrix(1,0,0,1,825,-295) translate(75.58641975308642 39.65277777777778)"/><use xlink:href="#d" transform="matrix(1,0,0,1,825,-295) translate(87.9320987654321 39.65277777777778)"/><path d="M322.5-360H394c3.3 0 6 2.7 6 6v34" stroke="#5e5e5e" stroke-width="2" fill="none"/><path d="M322.53-359h-1.1l.07-.98-.03-1.02h1.06z" fill="#5e5e5e"/><path d="M400-304.74L395.36-319h9.28z" stroke="#5e5e5e" stroke-width="2" fill="#5e5e5e"/><path d="M977.5-360H906c-3.3 0-6 2.7-6 6v34" stroke="#5e5e5e" stroke-width="2" fill="none"/><path d="M978.5-360.02l.03 1.02h-1.06v-2h1.1z" fill="#5e5e5e"/><path d="M900-304.74L895.36-319h9.28z" stroke="#5e5e5e" stroke-width="2" fill="#5e5e5e"/><path d="M188-240c17.67 0 32 17.9 32 40s-14.33 40-32 40H92c-17.67 0-32-17.9-32-40s14.33-40 32-40z" stroke="#5e5e5e" stroke-width="3" fill="#fff"/><use xlink:href="#e" transform="matrix(1,0,0,1,65,-235) translate(63.888888888888886 39.65277777777778)"/><path d="M1208-240c17.67 0 32 17.9 32 40s-14.33 40-32 40h-96c-17.67 0-32-17.9-32-40s14.33-40 32-40z" stroke="#5e5e5e" stroke-width="3" fill="#fff"/><use xlink:href="#a" transform="matrix(1,0,0,1,1085,-235) translate(32.5 39.65277777777778)"/><use xlink:href="#b" transform="matrix(1,0,0,1,1085,-235) translate(94.04320987654322 39.65277777777778)"/><use xlink:href="#d" transform="matrix(1,0,0,1,1085,-235) translate(106.38888888888889 39.65277777777778)"/><path d="M317.5-260H140" stroke="#5e5e5e" stroke-width="2" fill="none"/><path d="M318.5-260.02l.03 1.02h-1.06v-2h1.1z" fill="#5e5e5e"/><path d="M140-244.74L135.37-259h9.27z" stroke="#5e5e5e" stroke-width="2" fill="#5e5e5e"/><path d="M982.5-260H1160" stroke="#5e5e5e" stroke-width="2" fill="none"/><path d="M982.53-259h-1.1l.07-.98-.03-1.02h1.06z" fill="#5e5e5e"/><path d="M1160-244.74l-4.64-14.26h9.27z" stroke="#5e5e5e" stroke-width="2" fill="#5e5e5e"/><path d="M448-180c17.67 0 32 17.9 32 40s-14.33 40-32 40h-96c-17.67 0-32-17.9-32-40s14.33-40 32-40z" stroke="#5e5e5e" stroke-width="3" fill="#fff"/><use xlink:href="#i" transform="matrix(1,0,0,1,325,-175) translate(58.333333333333336 39.65277777777778)"/><path d="M948-180c17.67 0 32 17.9 32 40s-14.33 40-32 40h-96c-17.67 0-32-17.9-32-40s14.33-40 32-40z" stroke="#5e5e5e" stroke-width="3" fill="#fff"/><use xlink:href="#h" transform="matrix(1,0,0,1,825,-175) translate(47.31481481481482 39.65277777777778)"/><path d="M222.5-200H264c3.3 0 6 2.7 6 6v48c0 3.3 2.7 6 6 6h24" stroke="#5e5e5e" stroke-width="2" fill="none"/><path d="M222.53-199h-1.1l.07-.98-.03-1.02h1.06z" fill="#5e5e5e"/><path d="M315.26-140L301-135.36v-9.28z" stroke="#5e5e5e" stroke-width="2" fill="#5e5e5e"/><path d="M1077.5-200H1036c-3.3 0-6 2.7-6 6v48c0 3.3-2.7 6-6 6h-24" stroke="#5e5e5e" stroke-width="2" fill="none"/><path d="M1078.5-200.02l.03 1.02h-1.06v-2h1.1z" fill="#5e5e5e"/><path d="M984.74-140l14.26-4.64v9.28z" stroke="#5e5e5e" stroke-width="2" fill="#5e5e5e"/><path d="M448 20c17.67 0 32 17.9 32 40s-14.33 40-32 40h-96c-17.67 0-32-17.9-32-40s14.33-40 32-40z" stroke="#5e5e5e" stroke-width="3" fill="#fff"/><use xlink:href="#g" transform="matrix(1,0,0,1,325,25) translate(69.44444444444444 39.65277777777778)"/><path d="M948 20c17.67 0 32 17.9 32 40s-14.33 40-32 40h-96c-17.67 0-32-17.9-32-40s14.33-40 32-40z" stroke="#5e5e5e" stroke-width="3" fill="#fff"/><use xlink:href="#a" transform="matrix(1,0,0,1,825,25) translate(26.944444444444443 39.65277777777778)"/><use xlink:href="#b" transform="matrix(1,0,0,1,825,25) translate(88.48765432098764 39.65277777777778)"/><use xlink:href="#f" transform="matrix(1,0,0,1,825,25) translate(100.83333333333333 39.65277777777778)"/><path d="M400-97.5V0" stroke="#5e5e5e" stroke-width="2" fill="none"/><path d="M401-97.47h-2v-1.03h2z" fill="#5e5e5e"/><path d="M400 15.26L395.36 1h9.28z" stroke="#5e5e5e" stroke-width="2" fill="#5e5e5e"/><path d="M900-97.5V0" stroke="#5e5e5e" stroke-width="2" fill="none"/><path d="M901-97.47h-2v-1.03h2z" fill="#5e5e5e"/><path d="M900 15.26L895.36 1h9.28z" stroke="#5e5e5e" stroke-width="2" fill="#5e5e5e"/><path d="M548 160c17.67 0 32 17.9 32 40s-14.33 40-32 40h-96c-17.67 0-32-17.9-32-40s14.33-40 32-40z" stroke="#5e5e5e" stroke-width="3" fill="#fff"/><use xlink:href="#e" transform="matrix(1,0,0,1,425,165) translate(63.888888888888886 39.65277777777778)"/><path d="M848 160c17.67 0 32 17.9 32 40s-14.33 40-32 40h-96c-17.67 0-32-17.9-32-40s14.33-40 32-40z" stroke="#5e5e5e" stroke-width="3" fill="#fff"/><use xlink:href="#a" transform="matrix(1,0,0,1,725,165) translate(32.5 39.65277777777778)"/><use xlink:href="#b" transform="matrix(1,0,0,1,725,165) translate(94.04320987654322 39.65277777777778)"/><use xlink:href="#d" transform="matrix(1,0,0,1,725,165) translate(106.38888888888889 39.65277777777778)"/><path d="M482.5 60H494c3.3 0 6 2.7 6 6v74" stroke="#5e5e5e" stroke-width="2" fill="none"/><path d="M482.53 61h-1.1l.07-.98-.03-1.02h1.06z" fill="#5e5e5e"/><path d="M500 155.26L495.36 141h9.28z" stroke="#5e5e5e" stroke-width="2" fill="#5e5e5e"/><path d="M817.5 60H806c-3.3 0-6 2.7-6 6v74" stroke="#5e5e5e" stroke-width="2" fill="none"/><path d="M818.5 59.98l.03 1.02h-1.06v-2h1.1z" fill="#5e5e5e"/><path d="M800 155.26L795.36 141h9.28z" stroke="#5e5e5e" stroke-width="2" fill="#5e5e5e"/><path d="M848 360c17.67 0 32 17.9 32 40s-14.33 40-32 40h-96c-17.67 0-32-17.9-32-40s14.33-40 32-40z" stroke="#5e5e5e" stroke-width="3" fill="#fff"/><g><use xlink:href="#a" transform="matrix(1,0,0,1,725,365) translate(21.388888888888893 39.65277777777778)"/><use xlink:href="#b" transform="matrix(1,0,0,1,725,365) translate(82.9320987654321 39.65277777777778)"/><use xlink:href="#c" transform="matrix(1,0,0,1,725,365) translate(95.27777777777777 39.65277777777778)"/></g><path d="M800 242.5V340" stroke="#5e5e5e" stroke-width="2" fill="none"/><path d="M801 242.53h-2v-1.03h2z" fill="#5e5e5e"/><path d="M800 355.26L795.36 341h9.28z" stroke="#5e5e5e" stroke-width="2" fill="#5e5e5e"/><path d="M680 466c0-3.3 2.7-6 6-6h228c3.3 0 6 2.7 6 6v48c0 3.3-2.7 6-6 6H686c-3.3 0-6-2.7-6-6z" stroke="#000" stroke-opacity="0" stroke-width="3" fill="#0c7cba"/><g><use xlink:href="#l" transform="matrix(1,0,0,1,685,465) translate(97.1604938271605 30.27777777777778)"/></g><path d="M500-1214c0-3.3 2.7-6 6-6h288c3.3 0 6 2.7 6 6v51.33c0 3.32-2.7 6-6 6H506c-3.3 0-6-2.68-6-6z" stroke="#000" stroke-opacity="0" stroke-width="3" fill="#c92d39"/><g><use xlink:href="#m" transform="matrix(1,0,0,1,505,-1215) translate(7.432098765432045 33.05555555555556)"/><use xlink:href="#n" transform="matrix(1,0,0,1,505,-1215) translate(142.96296296296293 33.05555555555556)"/><use xlink:href="#o" transform="matrix(1,0,0,1,505,-1215) translate(167.3395061728395 33.05555555555556)"/></g><path d="M530-1310.67c0-3.3 2.7-6 6-6h228c3.3 0 6 2.7 6 6v48c0 3.32-2.7 6-6 6H536c-3.3 0-6-2.68-6-6z" stroke="#000" stroke-opacity="0" stroke-width="3" fill="#333"/><g><use xlink:href="#p" transform="matrix(1,0,0,1,535,-1311.6666666666667) translate(31.388888888888886 31.138888888888893)"/><use xlink:href="#q" transform="matrix(1,0,0,1,535,-1311.6666666666667) translate(127.91975308641976 31.138888888888893)"/></g><path d="M0-1121c0-3.3 2.7-6 6-6h228c3.3 0 6 2.7 6 6v62c0 3.3-2.7 6-6 6H6c-3.3 0-6-2.7-6-6z" stroke="#000" stroke-opacity="0" stroke-width="3" fill="#19967d"/><g><use xlink:href="#r" transform="matrix(1,0,0,1,5,-1122) translate(8.925925925925895 25.333333333333336)"/><use xlink:href="#s" transform="matrix(1,0,0,1,5,-1122) translate(156.7777777777778 25.333333333333336)"/><use xlink:href="#t" transform="matrix(1,0,0,1,5,-1122) translate(197.3703703703704 25.333333333333336)"/><use xlink:href="#u" transform="matrix(1,0,0,1,5,-1122) translate(16.333333333333314 57.333333333333336)"/><use xlink:href="#v" transform="matrix(1,0,0,1,5,-1122) translate(149.44444444444446 57.333333333333336)"/><use xlink:href="#w" transform="matrix(1,0,0,1,5,-1122) translate(198.85185185185188 57.333333333333336)"/></g><defs><path fill="#333" d="M210-169c-67 3-38 105-44 169h-31v-121c0-29-5-50-35-48C34-165 62-65 56 0H25l-1-190h30c1 10-1 24 2 32 10-44 99-50 107 0 11-21 27-35 58-36 85-2 47 119 55 194h-31v-121c0-29-5-49-35-48" id="x"/><g id="a"><use transform="matrix(0.06172839506172839,0,0,0.06172839506172839,0,0)" xlink:href="#x"/><use transform="matrix(0.06172839506172839,0,0,0.06172839506172839,18.456790123456788,0)" xlink:href="#x"/><use transform="matrix(0.06172839506172839,0,0,0.06172839506172839,36.913580246913575,0)" xlink:href="#x"/></g><path fill="#333" d="M0 4l72-265h28L28 4H0" id="y"/><use transform="matrix(0.06172839506172839,0,0,0.06172839506172839,0,0)" xlink:href="#y" id="b"/><path fill="#333" d="M96-169c-40 0-48 33-48 73s9 75 48 75c24 0 41-14 43-38l32 2c-6 37-31 61-74 61-59 0-76-41-82-99-10-93 101-131 147-64 4 7 5 14 7 22l-32 3c-4-21-16-35-41-35" id="z"/><g id="c"><use transform="matrix(0.06172839506172839,0,0,0.06172839506172839,0,0)" xlink:href="#z"/><use transform="matrix(0.06172839506172839,0,0,0.06172839506172839,11.11111111111111,0)" xlink:href="#z"/><use transform="matrix(0.06172839506172839,0,0,0.06172839506172839,22.22222222222222,0)" xlink:href="#z"/></g><use transform="matrix(0.06172839506172839,0,0,0.06172839506172839,0,0)" xlink:href="#z" id="d"/><g id="e"><use transform="matrix(0.06172839506172839,0,0,0.06172839506172839,0,0)" xlink:href="#z"/><use transform="matrix(0.06172839506172839,0,0,0.06172839506172839,11.11111111111111,0)" xlink:href="#z"/></g><g id="f"><use transform="matrix(0.06172839506172839,0,0,0.06172839506172839,0,0)" xlink:href="#z"/><use transform="matrix(0.06172839506172839,0,0,0.06172839506172839,11.11111111111111,0)" xlink:href="#z"/></g><use transform="matrix(0.06172839506172839,0,0,0.06172839506172839,0,0)" xlink:href="#z" id="g"/><g id="h"><use transform="matrix(0.06172839506172839,0,0,0.06172839506172839,0,0)" xlink:href="#x"/><use transform="matrix(0.06172839506172839,0,0,0.06172839506172839,18.456790123456788,0)" xlink:href="#x"/><use transform="matrix(0.06172839506172839,0,0,0.06172839506172839,36.913580246913575,0)" xlink:href="#x"/></g><g id="i"><use transform="matrix(0.06172839506172839,0,0,0.06172839506172839,0,0)" xlink:href="#z"/><use transform="matrix(0.06172839506172839,0,0,0.06172839506172839,11.11111111111111,0)" xlink:href="#z"/><use transform="matrix(0.06172839506172839,0,0,0.06172839506172839,22.22222222222222,0)" xlink:href="#z"/></g><use transform="matrix(0.06172839506172839,0,0,0.06172839506172839,0,0)" xlink:href="#x" id="j"/><g id="k"><use transform="matrix(0.06172839506172839,0,0,0.06172839506172839,0,0)" xlink:href="#x"/><use transform="matrix(0.06172839506172839,0,0,0.06172839506172839,18.456790123456788,0)" xlink:href="#x"/></g><path fill="#fff" d="M76-208v77h127v40H76V0H24v-248h183v40H76" id="A"/><path fill="#fff" d="M24 0v-248h52V0H24" id="B"/><path fill="#fff" d="M175 0L67-191c6 58 2 128 3 191H24v-248h59L193-55c-6-58-2-129-3-193h46V0h-61" id="C"/><g id="l"><use transform="matrix(0.06172839506172839,0,0,0.06172839506172839,0,0)" xlink:href="#A"/><use transform="matrix(0.06172839506172839,0,0,0.06172839506172839,13.518518518518517,0)" xlink:href="#B"/><use transform="matrix(0.06172839506172839,0,0,0.06172839506172839,19.691358024691358,0)" xlink:href="#C"/></g><path fill="#fff" d="M230 0l2-204L168 0h-37L68-204 70 0H24v-248h70l56 185 57-185h69V0h-46" id="D"/><path fill="#fff" d="M25-224v-37h50v37H25zM25 0v-190h50V0H25" id="E"/><path fill="#fff" d="M137-138c1-29-70-34-71-4 15 46 118 7 119 86 1 83-164 76-172 9l43-7c4 19 20 25 44 25 33 8 57-30 24-41C81-84 22-81 20-136c-2-80 154-74 161-7" id="F"/><path fill="#fff" d="M110-194c64 0 96 36 96 99 0 64-35 99-97 99-61 0-95-36-95-99 0-62 34-99 96-99zm-1 164c35 0 45-28 45-65 0-40-10-65-43-65-34 0-45 26-45 65 0 36 10 65 43 65" id="G"/><path fill="#fff" d="M135-194c87-1 58 113 63 194h-50c-7-57 23-157-34-157-59 0-34 97-39 157H25l-1-190h47c2 12-1 28 3 38 12-26 28-41 61-42" id="H"/><path fill="#fff" d="M185-48c-13 30-37 53-82 52C43 2 14-33 14-96s30-98 90-98c62 0 83 45 84 108H66c0 31 8 55 39 56 18 0 30-7 34-22zm-45-69c5-46-57-63-70-21-2 6-4 13-4 21h74" id="I"/><path fill="#fff" d="M135-150c-39-12-60 13-60 57V0H25l-1-190h47c2 13-1 29 3 40 6-28 27-53 61-41v41" id="J"/><g id="m"><use transform="matrix(0.06790123456790124,0,0,0.06790123456790124,0,0)" xlink:href="#D"/><use transform="matrix(0.06790123456790124,0,0,0.06790123456790124,20.302469135802472,0)" xlink:href="#E"/><use transform="matrix(0.06790123456790124,0,0,0.06790123456790124,27.092592592592595,0)" xlink:href="#F"/><use transform="matrix(0.06790123456790124,0,0,0.06790123456790124,40.67283950617284,0)" xlink:href="#E"/><use transform="matrix(0.06790123456790124,0,0,0.06790123456790124,47.46296296296297,0)" xlink:href="#G"/><use transform="matrix(0.06790123456790124,0,0,0.06790123456790124,62.33333333333334,0)" xlink:href="#H"/><use transform="matrix(0.06790123456790124,0,0,0.06790123456790124,77.20370370370371,0)" xlink:href="#I"/><use transform="matrix(0.06790123456790124,0,0,0.06790123456790124,90.78395061728396,0)" xlink:href="#J"/><use transform="matrix(0.06790123456790124,0,0,0.06790123456790124,100.29012345679014,0)" xlink:href="#G"/><use transform="matrix(0.06790123456790124,0,0,0.06790123456790124,115.16049382716051,0)" xlink:href="#F"/></g><path fill="#fff" d="M168-19C124 19 11 11 16-68c3-43 29-60 59-75-25-44-12-111 53-106 37 3 64 15 64 52 0 43-40 52-69 68 12 22 27 41 43 59 14-19 21-38 28-64l37 13c-8 29-19 52-34 74 12 10 32 16 52 10v35c-28 11-65-2-81-17zm-58-139c19-9 43-14 43-39 0-14-10-22-25-22-34 0-33 41-18 61zM60-68c-3 40 55 47 79 25-18-20-34-42-48-67-18 8-30 20-31 42" id="K"/><use transform="matrix(0.06790123456790124,0,0,0.06790123456790124,0,0)" xlink:href="#K" id="n"/><path fill="#fff" d="M67-125c0 53 21 87 73 88 37 1 54-22 65-47l45 17C233-25 199 4 140 4 58 4 20-42 15-125 8-235 124-281 211-232c18 10 29 29 36 50l-46 12c-8-25-30-41-62-41-52 0-71 34-72 86" id="L"/><path fill="#fff" d="M133-34C117-15 103 5 69 4 32 3 11-16 11-54c-1-60 55-63 116-61 1-26-3-47-28-47-18 1-26 9-28 27l-52-2c7-38 36-58 82-57s74 22 75 68l1 82c-1 14 12 18 25 15v27c-30 8-71 5-69-32zm-48 3c29 0 43-24 42-57-32 0-66-3-65 30 0 17 8 27 23 27" id="M"/><path fill="#fff" d="M135-194c52 0 70 43 70 98 0 56-19 99-73 100-30 1-46-15-58-35L72 0H24l1-261h50v104c11-23 29-37 60-37zM114-30c31 0 40-27 40-66 0-37-7-63-39-63s-41 28-41 65c0 36 8 64 40 64" id="N"/><path fill="#fff" d="M25 0v-261h50V0H25" id="O"/><g id="o"><use transform="matrix(0.06790123456790124,0,0,0.06790123456790124,0,0)" xlink:href="#L"/><use transform="matrix(0.06790123456790124,0,0,0.06790123456790124,17.58641975308642,0)" xlink:href="#M"/><use transform="matrix(0.06790123456790124,0,0,0.06790123456790124,31.16666666666667,0)" xlink:href="#H"/><use transform="matrix(0.06790123456790124,0,0,0.06790123456790124,46.037037037037045,0)" xlink:href="#E"/><use transform="matrix(0.06790123456790124,0,0,0.06790123456790124,52.827160493827165,0)" xlink:href="#N"/><use transform="matrix(0.06790123456790124,0,0,0.06790123456790124,67.69753086419755,0)" xlink:href="#M"/><use transform="matrix(0.06790123456790124,0,0,0.06790123456790124,81.2777777777778,0)" xlink:href="#O"/><use transform="matrix(0.06790123456790124,0,0,0.06790123456790124,88.06790123456793,0)" xlink:href="#I"/><use transform="matrix(0.06790123456790124,0,0,0.06790123456790124,101.64814814814818,0)" xlink:href="#F"/></g><path fill="#fff" d="M136-208V0H84v-208H4v-40h212v40h-80" id="P"/><path fill="#fff" d="M24 0v-248h195v40H76v63h132v40H76v65h150V0H24" id="Q"/><path fill="#fff" d="M199 0l-22-63H83L61 0H9l90-248h61L250 0h-51zm-33-102l-36-108c-10 38-24 72-36 108h72" id="R"/><g id="p"><use transform="matrix(0.08641975308641976,0,0,0.08641975308641976,0,0)" xlink:href="#P"/><use transform="matrix(0.08641975308641976,0,0,0.08641975308641976,18.925925925925927,0)" xlink:href="#Q"/><use transform="matrix(0.08641975308641976,0,0,0.08641975308641976,39.66666666666667,0)" xlink:href="#R"/><use transform="matrix(0.08641975308641976,0,0,0.08641975308641976,62.04938271604939,0)" xlink:href="#D"/></g><path fill="#fff" d="M182-130c37 4 62 22 62 59C244 23 116-4 24 0v-248c84 5 203-23 205 63 0 31-19 50-47 55zM76-148c40-3 101 13 101-30 0-44-60-28-101-31v61zm0 110c48-3 116 14 116-37 0-48-69-32-116-35v72" id="S"/><path fill="#fff" d="M169-182c-1-43-94-46-97-3 18 66 151 10 154 114 3 95-165 93-204 36-6-8-10-19-12-30l50-8c3 46 112 56 116 5-17-69-150-10-154-114-4-87 153-88 188-35 5 8 8 18 10 28" id="T"/><g id="q"><use transform="matrix(0.08641975308641976,0,0,0.08641975308641976,0,0)" xlink:href="#S"/><use transform="matrix(0.08641975308641976,0,0,0.08641975308641976,22.38271604938272,0)" xlink:href="#B"/><use transform="matrix(0.08641975308641976,0,0,0.08641975308641976,31.024691358024693,0)" xlink:href="#P"/><use transform="matrix(0.08641975308641976,0,0,0.08641975308641976,49.95061728395062,0)" xlink:href="#T"/></g><g id="r"><use transform="matrix(0.07407407407407408,0,0,0.07407407407407408,0,0)" xlink:href="#D"/><use transform="matrix(0.07407407407407408,0,0,0.07407407407407408,22.148148148148152,0)" xlink:href="#E"/><use transform="matrix(0.07407407407407408,0,0,0.07407407407407408,29.55555555555556,0)" xlink:href="#F"/><use transform="matrix(0.07407407407407408,0,0,0.07407407407407408,44.37037037037039,0)" xlink:href="#E"/><use transform="matrix(0.07407407407407408,0,0,0.07407407407407408,51.777777777777786,0)" xlink:href="#G"/><use transform="matrix(0.07407407407407408,0,0,0.07407407407407408,68.00000000000001,0)" xlink:href="#H"/><use transform="matrix(0.07407407407407408,0,0,0.07407407407407408,84.22222222222226,0)" xlink:href="#I"/><use transform="matrix(0.07407407407407408,0,0,0.07407407407407408,99.03703703703707,0)" xlink:href="#J"/><use transform="matrix(0.07407407407407408,0,0,0.07407407407407408,109.40740740740743,0)" xlink:href="#G"/><use transform="matrix(0.07407407407407408,0,0,0.07407407407407408,125.62962962962966,0)" xlink:href="#F"/></g><path fill="#fff" d="M14-72v-43h91v43H14" id="U"/><path fill="#fff" d="M15-22v-40l146-57-146-57v-40l181 69v56" id="V"/><g id="s"><use transform="matrix(0.07407407407407408,0,0,0.07407407407407408,0,0)" xlink:href="#U"/><use transform="matrix(0.07407407407407408,0,0,0.07407407407407408,8.814814814814817,0)" xlink:href="#U"/><use transform="matrix(0.07407407407407408,0,0,0.07407407407407408,17.629629629629633,0)" xlink:href="#V"/></g><path fill="#fff" d="M220-157c-53 9-28 100-34 157h-49v-107c1-27-5-49-29-50C55-147 81-57 75 0H25l-1-190h47c2 12-1 28 3 38 10-53 101-56 108 0 13-22 24-43 59-42 82 1 51 116 57 194h-49v-107c-1-25-5-48-29-50" id="W"/><use transform="matrix(0.07407407407407408,0,0,0.07407407407407408,0,0)" xlink:href="#W" id="t"/><g id="u"><use transform="matrix(0.07407407407407408,0,0,0.07407407407407408,0,0)" xlink:href="#L"/><use transform="matrix(0.07407407407407408,0,0,0.07407407407407408,19.185185185185187,0)" xlink:href="#M"/><use transform="matrix(0.07407407407407408,0,0,0.07407407407407408,34,0)" xlink:href="#H"/><use transform="matrix(0.07407407407407408,0,0,0.07407407407407408,50.22222222222223,0)" xlink:href="#E"/><use transform="matrix(0.07407407407407408,0,0,0.07407407407407408,57.62962962962964,0)" xlink:href="#N"/><use transform="matrix(0.07407407407407408,0,0,0.07407407407407408,73.85185185185186,0)" xlink:href="#M"/><use transform="matrix(0.07407407407407408,0,0,0.07407407407407408,88.66666666666667,0)" xlink:href="#O"/><use transform="matrix(0.07407407407407408,0,0,0.07407407407407408,96.07407407407409,0)" xlink:href="#I"/><use transform="matrix(0.07407407407407408,0,0,0.07407407407407408,110.88888888888891,0)" xlink:href="#F"/></g><g id="v"><use transform="matrix(0.07407407407407408,0,0,0.07407407407407408,0,0)" xlink:href="#U"/><use transform="matrix(0.07407407407407408,0,0,0.07407407407407408,8.814814814814817,0)" xlink:href="#U"/><use transform="matrix(0.07407407407407408,0,0,0.07407407407407408,17.629629629629633,0)" xlink:href="#U"/><use transform="matrix(0.07407407407407408,0,0,0.07407407407407408,26.444444444444446,0)" xlink:href="#V"/></g><path fill="#fff" d="M190-63c-7 42-38 67-86 67-59 0-84-38-90-98-12-110 154-137 174-36l-49 2c-2-19-15-32-35-32-30 0-35 28-38 64-6 74 65 87 74 30" id="X"/><use transform="matrix(0.07407407407407408,0,0,0.07407407407407408,0,0)" xlink:href="#X" id="w"/></defs></g></svg>